<?xml version="1.0" encoding="UTF-8" standalone="no"?>
<svg
   xmlns:dc="http://purl.org/dc/elements/1.1/"
   xmlns:cc="http://creativecommons.org/ns#"
   xmlns:rdf="http://www.w3.org/1999/02/22-rdf-syntax-ns#"
   xmlns:svg="http://www.w3.org/2000/svg"
   xmlns="http://www.w3.org/2000/svg"
   xml:space="preserve"
   style="enable-background:new 0 0 839 841.5;"
   viewBox="0 0 839 841.5"
   y="0px"
   x="0px"
   id="Layer_1"
   version="1.1"><metadata
   id="metadata13"><rdf:RDF><cc:Work
       rdf:about=""><dc:format>image/svg+xml</dc:format><dc:type
         rdf:resource="http://purl.org/dc/dcmitype/StillImage" /></cc:Work></rdf:RDF></metadata><defs
   id="defs11" />
<style
   id="style2"
   type="text/css">
	.st0{fill:#304FFE;}
</style>
<g
   id="g6">
	<path
   id="path4"
   d="M419.5,15.2C195.6,15.2,14,196.8,14,420.8s181.6,405.5,405.5,405.5c223.9,0,405.5-181.6,405.5-405.5   S643.5,15.2,419.5,15.2z M478.3,607.3c0,62-28.3,93.4-61.6,109.4C383.4,732.6,345.1,733,325,733h-32.8c-2.3,0-4.2-1.9-4.2-4.1   v-74.5c0-2.3,1.9-4.1,4.2-4.1c65.9-0.7,77-32.8,77-54.7c0-20.9,0.7-258.2,0.8-292.5c0-2.3,1.9-4.1,4.2-4.1h100.4   c2.3,0,4.2,1.9,4.2,4.1C478.7,330.9,478.3,492.7,478.3,607.3z M495.9,194.3c0,25.9-16,49.2-40.2,58.5l-80.5,31   c-2,0.7-4.1-0.7-4.1-2.8v-58.1c0-2.7,1.6-5.1,4.1-6.1l120.6-46.3V194.3z M532.4,94.9c0,26-16.1,49.4-40.5,58.6l-116.7,44.2   c-2,0.7-4.1-0.7-4.1-2.8v-58.1c0-2.7,1.7-5.1,4.2-6.1l157-59.5V94.9z"
   class="st0" />
</g>
</svg>